<svg xmlns="http://www.w3.org/2000/svg" viewBox="0 0 800 600">
  <rect width="800" height="600" fill="#e8eefc"/>
  <!-- воронка CRM: этапы пациента -->
  <path d="M140 100h520v60q0 24-24 24H140z" fill="#2563eb"/>
  <path d="M205 220h390v60q0 24-24 24H205z" fill="#2563eb" opacity=".75"/>
  <path d="M270 340h260v60q0 24-24 24H270z" fill="#2563eb" opacity=".5"/>
  <!-- итог: визит состоялся -->
  <circle cx="400" cy="500" r="52" fill="#1f9d55"/>
  <path d="M376 500l17 17 32-36" fill="none" stroke="#fff" stroke-width="11" stroke-linecap="round" stroke-linejoin="round"/>
  <!-- подписи-строки -->
  <g fill="#fff"><rect x="170" y="126" width="120" height="12"/><rect x="235" y="246" width="120" height="12"/><rect x="300" y="366" width="120" height="12"/></g>
  <!-- заявка, падающая в воронку -->
  <circle cx="680" cy="80" r="26" fill="#e0a526"/>
  <path d="M668 68l24 24m0-24l-24 24" stroke="#fff" stroke-width="0"/>
</svg>
