<svg xmlns="http://www.w3.org/2000/svg" viewBox="0 0 800 600">
  <rect width="800" height="600" fill="#faf0da"/>
  <!-- база: сетка карточек пациентов -->
  <path d="M90 110h180v92q0 28-28 28H90z" fill="#fff" stroke="#000" stroke-width="3"/>
  <path d="M310 110h180v92q0 28-28 28H310z" fill="#fff" stroke="#000" stroke-width="3"/>
  <path d="M530 110h180v92q0 28-28 28H530z" fill="#fff" stroke="#000" stroke-width="3"/>
  <path d="M90 280h180v92q0 28-28 28H90z" fill="#fff" stroke="#000" stroke-width="3"/>
  <path d="M310 280h180v92q0 28-28 28H310z" fill="#e0a526"/>
  <path d="M530 280h180v92q0 28-28 28H530z" fill="#fff" stroke="#000" stroke-width="3"/>
  <!-- строки в карточках -->
  <g fill="#000" opacity=".25">
    <rect x="115" y="145" width="90" height="10"/><rect x="115" y="170" width="130" height="10"/>
    <rect x="335" y="145" width="90" height="10"/><rect x="335" y="170" width="130" height="10"/>
    <rect x="555" y="145" width="90" height="10"/><rect x="555" y="170" width="130" height="10"/>
    <rect x="115" y="315" width="90" height="10"/><rect x="115" y="340" width="130" height="10"/>
    <rect x="555" y="315" width="90" height="10"/><rect x="555" y="340" width="130" height="10"/>
  </g>
  <g fill="#fff"><rect x="335" y="315" width="90" height="10"/><rect x="335" y="340" width="130" height="10"/></g>
  <!-- круговая стрелка возврата -->
  <path d="M400 530a86 86 0 1 1 86-86" fill="none" stroke="#1f9d55" stroke-width="20" stroke-linecap="round"/>
  <path d="M486 400l32 44h-64z" fill="#1f9d55"/>
</svg>
