<svg xmlns="http://www.w3.org/2000/svg" viewBox="0 0 800 600">
  <rect width="800" height="600" fill="#e8eefc"/>
  <!-- робот -->
  <path d="M250 200h240v190q0 30-30 30H250z" fill="#fff" stroke="#000" stroke-width="3"/>
  <circle cx="320" cy="290" r="26" fill="#2563eb"/>
  <circle cx="420" cy="290" r="26" fill="#2563eb"/>
  <path d="M320 360h100" stroke="#000" stroke-width="9" stroke-linecap="round"/>
  <!-- антенна -->
  <path d="M370 200v-50" stroke="#000" stroke-width="8"/>
  <circle cx="370" cy="135" r="18" fill="#d02026"/>
  <!-- волны голоса -->
  <path d="M540 240q40 55 0 110" fill="none" stroke="#000" stroke-width="12" stroke-linecap="round"/>
  <path d="M600 210q65 85 0 170" fill="none" stroke="#000" stroke-width="12" stroke-linecap="round" opacity=".5"/>
  <!-- результаты обзвона -->
  <circle cx="240" cy="500" r="38" fill="#1f9d55"/>
  <path d="M223 500l12 12 22-26" fill="none" stroke="#fff" stroke-width="8" stroke-linecap="round" stroke-linejoin="round"/>
  <circle cx="370" cy="500" r="38" fill="#e0a526"/>
  <path d="M355 500h30m-15-15v30" stroke="#fff" stroke-width="8" stroke-linecap="round" transform="rotate(45 370 500)"/>
  <circle cx="500" cy="500" r="38" fill="#2563eb"/>
  <text x="500" y="516" text-anchor="middle" font-family="Arial, sans-serif" font-size="46" font-weight="bold" fill="#fff">?</text>
</svg>
