<svg xmlns="http://www.w3.org/2000/svg" viewBox="0 0 800 600">
  <rect width="800" height="600" fill="#e8eefc"/>
  <!-- трубка -->
  <path d="M200 170q-60 60-20 160t130 150q80 34 118-4l34-34q18-18 0-36l-60-54q-16-14-32 0l-22 20q-44-18-74-52t-42-80l24-18q16-14 4-32l-46-66q-14-20-34-4z" fill="#2563eb"/>
  <!-- волны сигнала -->
  <path d="M470 170q50 70 0 140" fill="none" stroke="#000" stroke-width="13" stroke-linecap="round"/>
  <path d="M540 130q85 110 0 220" fill="none" stroke="#000" stroke-width="13" stroke-linecap="round" opacity=".6"/>
  <path d="M610 90q120 150 0 300" fill="none" stroke="#000" stroke-width="13" stroke-linecap="round" opacity=".3"/>
  <!-- запись разговора -->
  <circle cx="620" cy="480" r="40" fill="#d02026"/>
  <circle cx="620" cy="480" r="14" fill="#fff"/>
  <!-- принятый звонок -->
  <circle cx="160" cy="470" r="44" fill="#1f9d55"/>
  <path d="M140 470l14 14 26-30" fill="none" stroke="#fff" stroke-width="9" stroke-linecap="round" stroke-linejoin="round"/>
</svg>
